<svg width="30" height="30" viewBox="0 0 30 30" fill="none" xmlns="http://www.w3.org/2000/svg">
<path d="M5.87813 6C4.28906 6 3 7.28906 3 8.87812C3 8.92031 3 8.95781 3.00469 9H3V21C3 22.6547 4.34531 24 6 24H24C25.6547 24 27 22.6547 27 21V9H26.9953C26.9953 8.95781 27 8.92031 27 8.87812C27 7.28906 25.7109 6 24.1219 6H5.87813ZM24.75 12.0141V21C24.75 21.4125 24.4125 21.75 24 21.75H6C5.5875 21.75 5.25 21.4125 5.25 21V12.0141L12.5062 17.5172C13.9781 18.6375 16.0172 18.6375 17.4938 17.5172L24.75 12.0141ZM5.25 8.87812C5.25 8.53125 5.53125 8.25 5.87813 8.25H24.1219C24.4687 8.25 24.75 8.53125 24.75 8.87812C24.75 9.075 24.6562 9.2625 24.5016 9.37969L16.1344 15.7266C15.4641 16.2328 14.5359 16.2328 13.8656 15.7266L5.49844 9.37969C5.34375 9.2625 5.25 9.075 5.25 8.87812Z" fill="#ABB2BF"/>
</svg>
