<svg width="80" height="80" viewBox="0 0 80 80" fill="none" xmlns="http://www.w3.org/2000/svg">
<path d="M60 12C64.4125 12 68 15.5875 68 20V60C68 64.4125 64.4125 68 60 68H20C15.5875 68 12 64.4125 12 60V20C12 15.5875 15.5875 12 20 12H60ZM33.7125 20C29.5875 20 26.2375 23.35 26.2375 27.475C26.2375 30.1 27.5875 32.4 29.6375 33.7375C27.5875 35.075 26.2375 37.375 26.2375 40C26.2375 42.625 27.5875 44.9375 29.6375 46.2625C27.5875 47.6 26.2375 49.9 26.2375 52.525C26.2375 56.6625 29.625 60 33.75 60C37.9 60 41.325 56.6375 41.325 52.4625V45.5C42.65 46.725 44.425 47.475 46.375 47.475H46.5125C50.6375 47.475 53.9875 44.125 53.9875 40C53.9875 37.375 52.6375 35.0625 50.5875 33.7375C52.6375 32.4 53.9875 30.1 53.9875 27.475C53.9875 23.35 50.6375 20 46.5125 20H33.7125ZM38.9125 47.475V52.4625C38.9125 55.2875 36.5875 57.5875 33.75 57.5875C30.95 57.5875 28.6625 55.3125 28.6625 52.525C28.6625 49.7375 30.925 47.475 33.7 47.475H38.9125ZM38.9125 34.9375V45.05H33.7C30.9125 45.0375 28.6625 42.775 28.6625 39.9875C28.6625 37.2 30.925 34.925 33.725 34.925H38.925L38.9125 34.9375ZM46.5125 34.9375C49.3 34.9375 51.575 37.2 51.575 40C51.575 42.8 49.3125 45.0625 46.5125 45.0625H46.375C43.5875 45.0625 41.325 42.8 41.325 40C41.325 37.2 43.5875 34.9375 46.375 34.9375H46.5125ZM38.9125 32.525H33.7125C30.925 32.525 28.65 30.2625 28.65 27.475C28.65 24.6875 30.9125 22.4125 33.7125 22.4125H38.9125V32.525ZM46.5125 22.4125C49.3 22.4125 51.575 24.675 51.575 27.475C51.575 30.275 49.3125 32.525 46.5125 32.525H41.325V22.4125H46.5125Z" fill="#ABB2BF"/>
</svg>
