<svg width="30" height="30" viewBox="0 0 30 30" fill="none" xmlns="http://www.w3.org/2000/svg">
<path d="M15.0141 9.60928C12.0375 9.5999 9.61875 12.0093 9.60938 14.9858C9.6 17.9624 12.0094 20.3812 14.9859 20.3905C17.9625 20.3999 20.3813 17.9905 20.3906 15.014C20.4 12.0374 17.9906 9.61865 15.0141 9.60928ZM14.9859 11.503C16.9172 11.4937 18.4875 13.0546 18.4969 14.9858C18.5063 16.9171 16.9453 18.4874 15.0141 18.4968C13.0828 18.5062 11.5125 16.9452 11.5031 15.014C11.4937 13.0827 13.0547 11.5124 14.9859 11.503ZM19.3641 9.38896C19.3641 8.69521 19.9266 8.13271 20.6203 8.13271C21.3141 8.13271 21.8766 8.69521 21.8766 9.38896C21.8766 10.0827 21.3141 10.6452 20.6203 10.6452C19.9266 10.6452 19.3641 10.0827 19.3641 9.38896ZM25.4437 10.664C25.3641 8.98115 24.9797 7.49053 23.7469 6.2624C22.5188 5.03428 21.0281 4.6499 19.3453 4.56553C17.6109 4.46709 12.4125 4.46709 10.6781 4.56553C9 4.64521 7.50937 5.02959 6.27656 6.25771C5.04375 7.48584 4.66406 8.97646 4.57969 10.6593C4.48125 12.3937 4.48125 17.5921 4.57969 19.3265C4.65937 21.0093 5.04375 22.4999 6.27656 23.728C7.50937 24.9562 8.99531 25.3405 10.6781 25.4249C12.4125 25.5233 17.6109 25.5233 19.3453 25.4249C21.0281 25.3452 22.5188 24.9608 23.7469 23.728C24.975 22.4999 25.3594 21.0093 25.4437 19.3265C25.5422 17.5921 25.5422 12.3983 25.4437 10.664ZM23.2031 21.1874C22.8375 22.1062 22.1297 22.814 21.2062 23.1843C19.8234 23.7327 16.5422 23.6062 15.0141 23.6062C13.4859 23.6062 10.2 23.728 8.82187 23.1843C7.90312 22.8187 7.19531 22.1108 6.825 21.1874C6.27656 19.8046 6.40313 16.5233 6.40313 14.9952C6.40313 13.4671 6.28125 10.1812 6.825 8.80303C7.19063 7.88428 7.89844 7.17646 8.82187 6.80615C10.2047 6.25771 13.4859 6.38428 15.0141 6.38428C16.5422 6.38428 19.8281 6.2624 21.2062 6.80615C22.125 7.17178 22.8328 7.87959 23.2031 8.80303C23.7516 10.1858 23.625 13.4671 23.625 14.9952C23.625 16.5233 23.7516 19.8093 23.2031 21.1874Z" fill="#ABB2BF"/>
</svg>
