<svg width="80" height="80" viewBox="0 0 80 80" fill="none" xmlns="http://www.w3.org/2000/svg">
<path d="M12 12V68H68V12H12ZM42.475 55.675C42.475 61.125 39.275 63.6125 34.6125 63.6125C30.4 63.6125 27.9625 61.4375 26.7125 58.8L31 56.2125C31.825 57.675 32.575 58.9125 34.3875 58.9125C36.1125 58.9125 37.2125 58.2375 37.2125 55.6V37.7125H42.475V55.675ZM54.925 63.6125C50.0375 63.6125 46.875 61.2875 45.3375 58.2375L49.625 55.7625C50.75 57.6 52.225 58.9625 54.8125 58.9625C56.9875 58.9625 58.3875 57.875 58.3875 56.3625C58.3875 54.5625 56.9625 53.925 54.55 52.8625L53.2375 52.3C49.4375 50.6875 46.925 48.65 46.925 44.3625C46.925 40.4125 49.9375 37.4125 54.625 37.4125C57.975 37.4125 60.375 38.575 62.1 41.625L58 44.25C57.1 42.6375 56.125 42 54.6125 42C53.075 42 52.1 42.975 52.1 44.25C52.1 45.825 53.075 46.4625 55.3375 47.45L56.65 48.0125C61.125 49.925 63.6375 51.8875 63.6375 56.2875C63.6375 61.0125 59.9125 63.6125 54.925 63.6125Z" fill="#ABB2BF"/>
</svg>
