<svg width="80" height="80" viewBox="0 0 80 80" fill="none" xmlns="http://www.w3.org/2000/svg">
<g clip-path="url(#clip0_483_2963)">
<path d="M68.8624 44.4875C66.3499 44.4875 63.8624 45.0625 61.6124 46.175C60.8749 44.6875 60.1124 43.3875 59.9874 42.4125C59.8374 41.275 59.6749 40.6 59.8499 39.25C60.0249 37.9 60.8124 35.9875 60.7999 35.85C60.7874 35.7125 60.6249 35.025 59.0124 35.0125C57.3999 35 56.0124 35.325 55.8499 35.75C55.5624 36.525 55.3374 37.325 55.1874 38.1375C54.8999 39.6 51.9624 44.825 50.2999 47.55C49.7499 46.4875 49.2874 45.55 49.1874 44.8C49.0374 43.6625 48.8749 42.9875 49.0499 41.6375C49.2249 40.2875 50.0124 38.375 49.9999 38.2375C49.9874 38.1 49.8249 37.4125 48.2124 37.4C46.5999 37.3875 45.2124 37.7125 45.0499 38.1375C44.8874 38.5625 44.7124 39.5625 44.3874 40.525C44.0624 41.4875 40.1499 50.1875 39.1249 52.45C38.5999 53.6 38.1499 54.525 37.8249 55.15C37.7749 55.25 37.7374 55.3125 37.7124 55.3625C37.7499 55.3 37.7749 55.2375 37.7749 55.2625C37.4999 55.8 37.3374 56.1 37.3374 56.1V56.1125C37.1249 56.5125 36.8874 56.875 36.7749 56.875C36.6999 56.875 36.5374 55.825 36.8124 54.3875C37.3999 51.3625 38.7874 46.6625 38.7749 46.5C38.7624 46.4125 39.0374 45.6 37.8624 45.1625C36.7249 44.75 36.3124 45.4375 36.2124 45.4375C36.1124 45.4375 36.0374 45.6875 36.0374 45.6875C36.0374 45.6875 37.2999 40.3875 33.6124 40.3875C31.3124 40.3875 28.1124 42.9125 26.5374 45.2C25.5499 45.7375 23.4124 46.9 21.1624 48.1375C20.2999 48.6125 19.4124 49.1 18.5749 49.5625C18.5124 49.5 18.4624 49.4375 18.3999 49.375C13.9249 44.6 5.66243 41.225 6.01243 34.8125C6.13743 32.475 6.94993 26.3375 21.8999 18.8875C34.1499 12.7875 43.9374 14.4625 45.6249 18.1875C48.0499 23.5 40.3874 33.3875 27.6624 34.8125C22.8124 35.35 20.2624 33.475 19.6249 32.775C18.9624 32.0375 18.8624 32 18.6124 32.1375C18.1999 32.3625 18.4624 33.0125 18.6124 33.4C18.9874 34.3875 20.5499 36.1375 23.2124 37.0125C25.5499 37.775 31.2374 38.2 38.1124 35.5375C45.8374 32.5625 51.8499 24.275 50.0874 17.3375C48.2874 10.2875 36.5999 7.97502 25.5499 11.9C18.9624 14.2375 11.8374 17.9125 6.71243 22.7C0.624928 28.4 -0.350071 33.3625 0.0499286 35.4375C1.47493 42.8 11.6249 47.6 15.6874 51.15C15.4874 51.2625 15.2999 51.3625 15.1249 51.4625C13.0874 52.475 5.34993 56.525 3.41243 60.8C1.22493 65.65 3.77493 69.125 5.44993 69.6C10.6749 71.05 16.0249 68.4375 18.8999 64.15C21.7749 59.8625 21.4249 54.2625 20.0999 51.7125C20.0874 51.675 20.0624 51.65 20.0499 51.6125C20.5749 51.3 21.1124 50.9875 21.6499 50.675C22.6874 50.0625 23.6999 49.5 24.5874 49.0125C24.0874 50.3625 23.7249 51.9875 23.5374 54.3375C23.3124 57.0875 24.4499 60.65 25.9249 62.05C26.5749 62.6625 27.3624 62.675 27.8499 62.675C29.5749 62.675 30.3499 61.25 31.2124 59.55C32.2749 57.475 33.2124 55.0625 33.2124 55.0625C33.2124 55.0625 32.0374 61.5875 35.2499 61.5875C36.4249 61.5875 37.5999 60.075 38.1249 59.3V59.3125C38.1249 59.3125 38.1499 59.2625 38.2124 59.1625C38.3374 58.975 38.3999 58.8625 38.3999 58.8625V58.825C38.8749 58.0125 39.9124 56.15 41.4749 53.075C43.4999 49.1 45.4374 44.1375 45.4374 44.1375C45.6249 45.225 45.8874 46.3 46.2124 47.3625C46.5624 48.55 47.2999 49.85 47.8874 51.1125C47.4124 51.7625 47.1249 52.1375 47.1249 52.1375C47.1249 52.15 47.1249 52.15 47.1374 52.1625C46.7624 52.6625 46.3374 53.2 45.8999 53.725C44.2999 55.625 42.3999 57.8 42.1499 58.425C41.8499 59.1625 41.9249 59.7125 42.4999 60.1375C42.9249 60.4625 43.6749 60.5125 44.4624 60.45C45.8999 60.35 46.9124 60 47.3999 59.775C48.2999 59.45 49.1499 59.0125 49.9249 58.45C51.4874 57.3 52.4374 55.65 52.3499 53.475C52.2999 52.275 51.9124 51.075 51.4374 49.95C51.5749 49.75 51.7249 49.5375 51.8624 49.325C54.3374 45.7125 56.2499 41.75 56.2499 41.75C56.4374 42.8375 56.6999 43.9125 57.0249 44.975C57.3249 45.9875 57.9124 47.1 58.4499 48.1875C56.1249 50.075 54.6874 52.2625 54.1874 53.7C53.2624 56.3625 53.9874 57.5625 55.3499 57.8375C55.9624 57.9625 56.8374 57.675 57.4874 57.4C58.4499 57.075 59.3624 56.6125 60.1874 56.0125C61.7499 54.8625 63.2624 53.25 63.1624 51.0625C63.1249 50.075 62.8499 49.0875 62.4874 48.1375C64.4499 47.3125 66.9999 46.8625 70.2499 47.2375C77.2124 48.05 78.5749 52.4 78.3124 54.2125C78.0499 56.025 76.5874 57.0375 76.0999 57.3375C75.6124 57.6375 75.4624 57.75 75.4999 57.975C75.5624 58.3 75.7874 58.2875 76.1999 58.2125C76.7749 58.1125 79.8499 56.7375 79.9874 53.375C80.1874 49.125 76.0999 44.45 68.8624 44.4875ZM15.2249 62.575C12.9249 65.0875 9.69993 66.0375 8.31243 65.2375C6.82493 64.375 7.41243 60.675 10.2499 58C11.9749 56.375 14.1999 54.875 15.6749 53.95C16.0124 53.75 16.4999 53.45 17.0999 53.0875C17.1999 53.025 17.2499 53 17.2499 53C17.3624 52.925 17.4874 52.8625 17.6124 52.7875C18.6499 56.5875 17.6499 59.9375 15.2249 62.575ZM32.0249 51.15C31.2249 53.1125 29.5374 58.1125 28.5124 57.85C27.6374 57.625 27.0999 53.8125 28.3374 50.0625C28.9624 48.175 30.2874 45.925 31.0749 45.05C32.3374 43.6375 33.7249 43.1875 34.0499 43.75C34.4874 44.4875 32.5249 49.925 32.0249 51.15ZM45.8999 57.775C45.5624 57.95 45.2499 58.0625 45.0999 57.975C44.9874 57.9125 45.2374 57.675 45.2374 57.675C45.2374 57.675 46.9749 55.8125 47.6624 54.9625C48.0624 54.4625 48.5249 53.875 49.0249 53.225C49.0249 53.2875 49.0374 53.35 49.0374 53.425C49.0249 55.6625 46.8749 57.175 45.8999 57.775ZM56.5999 55.3375C56.3499 55.1625 56.3874 54.575 57.2249 52.75C57.5499 52.0375 58.2999 50.8375 59.5999 49.6875C59.7499 50.125 59.8249 50.575 59.8374 51.0375C59.8249 53.85 57.8124 54.9 56.5999 55.3375Z" fill="#ABB2BF"/>
</g>
<defs>
<clipPath id="clip0_483_2963">
<rect width="80" height="80" fill="white"/>
</clipPath>
</defs>
</svg>
