<svg width="80" height="80" viewBox="0 0 80 80" fill="none" xmlns="http://www.w3.org/2000/svg">
<path d="M15.7125 29.175L28.4 63.925C19.525 59.625 13.4125 50.525 13.4125 40C13.4125 36.1375 14.2375 32.4875 15.7125 29.175ZM57.95 38.6625C57.95 35.375 56.775 33.1 55.7625 31.325C54.4125 29.1375 53.15 27.275 53.15 25.0875C53.15 22.6375 55 20.3625 57.6125 20.3625C57.725 20.3625 57.8375 20.375 57.9625 20.3875C53.225 16.05 46.925 13.4 40 13.4C30.7125 13.4 22.5375 18.1625 17.775 25.3875C18.4 25.4125 18.9875 25.425 19.4875 25.425C22.2625 25.425 26.575 25.0875 26.575 25.0875C28.0125 25 28.175 27.1125 26.75 27.275C26.75 27.275 25.3125 27.4375 23.7125 27.525L33.4 56.325L39.225 38.875L35.0875 27.525C33.65 27.4375 32.3 27.275 32.3 27.275C30.8625 27.1875 31.0375 25 32.4625 25.0875C32.4625 25.0875 36.85 25.425 39.4625 25.425C42.2375 25.425 46.55 25.0875 46.55 25.0875C47.9875 25 48.15 27.1125 46.725 27.275C46.725 27.275 45.2875 27.4375 43.6875 27.525L53.3 56.1125L55.95 47.25C57.075 43.575 57.95 40.9375 57.95 38.6625ZM40.4625 42.325L32.4875 65.5125C34.875 66.2125 37.3875 66.6 40 66.6C43.1 66.6 46.0625 66.0625 48.825 65.0875C48.75 64.975 48.6875 64.85 48.6375 64.725L40.4625 42.325ZM63.3375 27.2375C63.45 28.0875 63.5125 28.9875 63.5125 29.975C63.5125 32.675 63.0125 35.7 61.4875 39.5L53.3625 62.9875C61.275 58.375 66.5875 49.8125 66.5875 40C66.5875 35.375 65.4125 31.025 63.3375 27.2375ZM9 40C9 22.875 22.875 9 40 9C57.125 9 71 22.875 71 40C71 57.125 57.125 71 40 71C22.875 71 9 57.125 9 40ZM69.575 40C69.575 23.6625 56.3375 10.425 40 10.425C23.6625 10.425 10.425 23.6625 10.425 40C10.425 56.3375 23.6625 69.575 40 69.575C56.3375 69.575 69.575 56.3375 69.575 40Z" fill="#ABB2BF"/>
</svg>
